<?xml version='1.0' encoding='UTF-8'?>
<svg x="0px" y="0px" viewBox="0 0 32 32" version="1.1" xmlns="http://www.w3.org/2000/svg" xmlns:xlink="http://www.w3.org/1999/xlink" enable-background="new 0 0 32 32" xml:space="preserve" id="Layer_1">
  <polygon points="27,28 22,22 26,22 26,6 2,6 2,30 22,30 22,32 0,32 0,4 28,4 28,22 32,22 " fill="#357DB8" />
  <g opacity="0.6">
    <rect x="6" y="10" width="4" height="4" rx="0" ry="0" fill="#010101" />
    <rect x="12" y="10" width="4" height="4" rx="0" ry="0" fill="#010101" />
    <rect x="18" y="10" width="4" height="4" rx="0" ry="0" fill="#010101" />
    <rect x="6" y="16" width="4" height="4" rx="0" ry="0" fill="#010101" />
    <rect x="12" y="16" width="4" height="4" rx="0" ry="0" fill="#010101" />
    <rect x="18" y="16" width="4" height="4" rx="0" ry="0" fill="#010101" />
    <rect x="6" y="22" width="4" height="4" rx="0" ry="0" fill="#010101" />
    <rect x="12" y="22" width="4" height="4" rx="0" ry="0" fill="#010101" />
  </g>
</svg>